<svg xmlns="http://www.w3.org/2000/svg" width="400" height="453.987"><path d="M310.865 261.904c-.682.017-1.364.093-2.125.192-32.087 6.852-61.963 28.05-79.687 55.58-7.501 11.649-12.511 23.87-16.914 36.92-11.65-27.63-36.868-50.013-64.383-61.223-7.556-3.079-34.728-12.016-41.62-9.6-1.71.6-2.344 1.885-2.923 3.51-1.957 5.496-2.535 12.091-3.229 17.904-3.63 30.403.058 62.853 14.06 90.338 15.639 30.693 42.247 50.361 74.606 60.713a268.112 268.112 0 0 0 23.147 6.203l7.52 21.887c-7.028-10.728-12.087-20.11-25.764-22.86-7.605-1.528-14.46-.174-21.492 2.874-7.528-7.201-15.235-11.623-25.924-11.307-8.662.256-16.939 4.321-22.819 10.621a36.288 36.288 0 0 0-2.359 2.828 37.552 37.552 0 0 0-2.064 3.051 37.161 37.161 0 0 0-2.504 4.922 37.072 37.072 0 0 0-1.743 5.242 36.784 36.784 0 0 0-.937 5.444 36.029 36.029 0 0 0-.172 3.677 37.822 37.822 0 0 0 1.053 8.688c-8.33 6.31-13.735 13.533-15.252 24.094-1.602 11.15 1.115 21.137 7.82 30.105l.496.652c.614 6.744 1.169 13.436 2.518 20.084a172.938 172.938 0 0 0 1.642 7.069 177.465 177.465 0 0 0 1.932 6.994 173.63 173.63 0 0 0 3.437 10.328 173.026 173.026 0 0 0 4.068 10.096 172.907 172.907 0 0 0 3.057 6.582 171.044 171.044 0 0 0 3.324 6.45 169.22 169.22 0 0 0 3.589 6.308c.62 1.038 1.25 2.07 1.892 3.095.64 1.026 1.291 2.046 1.953 3.059a174.62 174.62 0 0 0 2.02 3.015 173.014 173.014 0 0 0 4.219 5.905 174.063 174.063 0 0 0 6.775 8.515 178.61 178.61 0 0 0 4.807 5.44 172.202 172.202 0 0 0 5.025 5.234 175.63 175.63 0 0 0 7.932 7.453c.906.801 1.822 1.592 2.746 2.373 40.6 33.748 94.084 43.607 145.533 42.618 51.354-3.067 101.977-19.484 137.025-58.973a176.616 176.616 0 0 0 14.887-19.06 176.748 176.748 0 0 0 12.16-20.904 177.617 177.617 0 0 0 7.193-16.656 179.124 179.124 0 0 0 3.835-11.478 176.66 176.66 0 0 0 3.043-11.709c.44-1.968.847-3.944 1.22-5.926 1.344-7.315 2.586-14.92 2.172-22.373-.267-4.806-2.138-9.603-2.086-14.351.055-5.045 2.118-9.85 2.42-14.865 1.597-26.511-7.736-51.18-27.787-68.957-1.733-1.536-3.57-2.946-5.414-4.344 1.267-2.275 2.457-4.463 1.818-7.143-.45-1.884-1.856-3.291-3.525-4.183-6.665-3.562-19.561-3.09-27.211-2.987 2.199-3.988 4.42-7.781 7.312-11.312 2.543-3.104 9.153-8.493 10.606-11.688.858-1.888.57-4.31.03-6.263-.61-2.2-2.063-3.824-4.09-4.834-2.83-1.41-5.844-1.43-8.805-.4-9.228 3.208-17.442 14.074-21.3 22.699-1.388 3.104-2.384 6.266-3.27 9.544-5.062-6.894-13.1-15.263-21.938-16.67-2.04-.323-3.873.009-5.856.473-3.466-7.399-7.372-13.536-12.718-19.709l21.906-19.484c5.549-4.84 11.665-9.56 16.642-14.992 1.291-1.408 2.816-2.903 3.006-4.887.328-3.418-2.029-7.42-4.174-9.902-1.604-1.857-3.754-3.24-6.253-3.414-5.164-.36-9.741 4.167-13.207 7.443-5.364 5.07-10.664 10.383-15.497 15.963 3.591-7.167 20.723-37.762 18.811-44.301-1.002-3.425-5.933-5.856-9.045-7.076-3.65-1.43-11.778-3.713-15.387-1.936-4.87 2.398-10.846 31.337-12.629 37.795-.084-5.449.693-18.015-3.546-21.937-2.56-2.37-7.264-2.398-10.487-2.04-2.532.283-4.758.887-6.886 2.3-2.846 3.948-.06 41.146-.04 49.183-12.028-.311-21.568 1.124-32.503 6.22a145.587 145.587 0 0 0 3.228-6.368 148.606 148.606 0 0 0 4.262-9.83 149.185 149.185 0 0 0 3.537-10.11 146.02 146.02 0 0 0 1.95-6.87 148.47 148.47 0 0 0 4.685-35.32 148.198 148.198 0 0 0-.266-10.709 151.41 151.41 0 0 0-.605-7.115 150.512 150.512 0 0 0-2.237-14.103 152.053 152.053 0 0 0-1.625-6.955c-.298-1.153-.61-2.303-.937-3.447-.736-2.548-1.66-5.043-3.563-6.946a10.106 10.106 0 0 0-2.12-.166zm-48.03 166.473.464.453c.02.358.153.728.06 1.074-.792 2.95-4.964 10.052-6.539 13.381-4.983 10.533-9.436 21.322-14.683 31.725l-.451-.436c-1.496-8.62.018-21.449.61-30.369 6.514-5.577 13.877-10.351 20.54-15.828z" style="display:inline;fill:#23411f;fill-opacity:1" transform="matrix(1.0063 0 0 1.0063 -99.299 -263.553)"/><path fill="#d3bb6e" d="M31.952 319.496c2.687 1.284 5.324 3.376 7.866 4.952q7.224 4.482 14.98 7.963c26.33 11.907 63.387 19.349 92.033 23.135 59.83 7.908 123.31 6.435 180.98-12.839 17.474-5.84 33.617-12.682 48.35-23.985-6.186 19.06-13.692 36.204-25.81 52.402-22.09 29.114-52.254 48.104-87.329 57.73-51.006 14-115.443 8.594-161.61-17.842-34.499-19.755-58.992-53.4-69.46-91.516z"/><path fill="#f57d15" d="M232.798 129.106c9.03-.573 18.813 2.072 26.34 7.089 10.964 7.304 15.295 17.702 17.723 30.18-3.168 1.09-6.332 2.255-9.336 3.743-15.996 7.927-29.202 22.803-36.418 39-2.261 5.077-3.88 10.51-5.638 15.778-7.65-3.913-25.125-14.748-33.22-14.272-1.754.104-3.232.661-4.346 2.084-1.097 1.404-1.662 2.99-1.423 4.765.547 1.013 1.276 1.776 2.207 2.448 3.23 2.333 7.223 3.838 10.605 6.025 6.509 4.208 12.641 9.21 18.993 13.682-12.113 8.695-17.982 16.605-21.146 31.264-.788.159-1.56.329-2.338.525-10.18 2.573-18.668 8.278-24.019 17.432-6.944 11.883-6.506 23.374-3.054 36.274-4.211 4.69-8.373 9.433-12.824 13.899-5.125-.363-10.217-1.037-15.314-1.665-6.021-1.078-12.02-2.312-18.024-3.481q3.843-15.125 7.407-30.318c3.664.802 7.102 1.531 10.884 1.27 2.076-.142 3.778-.46 5.186-2.093.364-1.083.264-1.772-.132-2.851-1.751-4.758-8.956-7.494-13.197-9.5 5.132-12.44 8.405-25.232 14.988-37.096 5.586 1.277 20.065 6.763 25.107 4.88 1.287-.48 1.499-.749 2.127-1.87.068-1.324-.133-2.23-.72-3.4-3.783-7.544-14.66-10.173-22.115-12.72 7.541-17.375 15.12-34.667 23.336-51.739 2.88-5.981 5.403-12.574 8.876-18.194 5.948 1.046 12.149 2.414 17.899 4.247 2.928.933 5.86 2.428 8.822 3.138a5.23 5.23 0 0 0 2.495-.023c1.437-.382 2.615-1.08 3.228-2.515.536-1.252.288-2.652-.305-3.83-3.626-7.203-17.98-11.085-25.068-13.128 2.702-3.936 5.37-7.998 8.435-11.663 9.055-10.829 20.084-16.065 33.979-17.365z"/><path fill="#6f9c25" d="M273.93 244.772c2.171-.11 4.286-.158 6.449.126 6.803.893 13.177 4.23 17.257 9.835 3.094 4.248 4.703 9.644 3.703 14.877-1.204 6.31-5.38 9.494-10.438 12.753 11.014-2.544 22.402-6.996 33.524-2.33 6.803 2.852 12.895 9.032 15.67 15.904q.184.467.346.942.162.475.301.957.14.482.254.97.115.489.205.983.092.493.158.991.067.497.109.997.042.5.06 1.002.017.502.01 1.004-.007.501-.038 1.002t-.087 1q-.056.499-.136.995-.08.495-.185.986-.104.491-.233.976-.128.485-.28.963-.152.48-.327.95-.175.47-.373.93c-2.403 5.48-7.331 9.28-12.856 11.297-6.39 2.334-17.4 2.562-22.848-2.243-2.301-2.03-3.96-6.098-6.978-7.123-1.165-.396-1.56-.212-2.522.346.819 2.703.499 5.264-.454 7.91-2.175 6.04-7.56 10.436-13.289 12.958-7.574 3.335-15.157 2.997-22.783.17l-5.359-6.554c-2.326.768-5.026 1.686-7.487 1.853-2.752.187-4.289-.752-6.323-2.485-2.626-3.478-4.515-7.16-3.84-11.656.88-5.85 5.293-9.98 9.732-13.41q-2.605.524-5.188 1.15c-5.433 1.357-8.142 5.79-10.853 10.258-14.67-.575-13.683 7.42-23.157 14.25-3.157 2.275-7.185 3.522-11.066 2.791-3.92-.738-7.084-3.394-9.24-6.657-3.708-5.613-4.635-13.702-3.14-20.24 1.408-6.15 5.599-11.27 10.951-14.49 6.685-4.021 14.078-4.55 21.515-2.797-.576-2.473-1.25-5.007-1.432-7.547-.485-6.787 1.56-13.98 6.1-19.13 3.873-4.395 9.289-6.669 15.095-6.865 6.93-.234 14.5 1.89 19.66 6.586.8-1.4 1.639-2.793 2.58-4.103 3.999-5.571 10.467-9.896 17.233-11.082z"/><path fill="#c92d22" d="M285.257 179.23c1.803.2 3.647.9 5.479 1.159 3.8.536 7.756.084 11.56-.198-2.051 2.39-5.058 4.282-7.465 6.341-5.231 4.473-10.186 11.52-12.979 17.814-.796 1.795-.928 2.973-.188 4.794.578.436 1.108.813 1.827.986 8.66 2.085 28.39-9.762 35.881-14.75 1.416 2.7 2.749 5.58 4.457 8.101 3.643 5.375 12.547 14.67 18.552 16.885 1.605.593 3.583.92 5.127-.021 1.13-.69 1.75-1.914 1.981-3.18 1.426-7.855-7.417-21.938-12.058-28.09 4.223.831 7.555 1.495 11.798.212q1.22.662 2.41 1.37 1.193.708 2.356 1.464 1.163.755 2.295 1.556 1.132.8 2.232 1.646 1.1.846 2.164 1.734 1.065.889 2.094 1.818 1.029.93 2.02 1.9.991.97 1.943 1.978.952 1.01 1.863 2.055.912 1.045 1.78 2.126.869 1.08 1.695 2.195.825 1.115 1.605 2.26.78 1.147 1.514 2.324.735 1.177 1.422 2.381.687 1.205 1.326 2.436.639 1.231 1.227 2.486.675 1.506 1.277 3.043.601 1.537 1.126 3.102.525 1.564.972 3.153.448 1.587.818 3.196.37 1.609.66 3.233.29 1.624.5 3.261.211 1.637.34 3.282.13 1.645.18 3.294.05 1.65.018 3.3-.031 1.65-.144 3.297-.111 1.646-.305 3.285-.192 1.639-.465 3.267-.272 1.627-.624 3.24-.353 1.612-.783 3.205-.431 1.593-.938 3.163-.508 1.57-1.093 3.114c-5.248 11.74-12.48 19.196-22.503 26.953-3.053-16.2-13.768-30.094-30.01-34.927-2.735-.813-8.763-1.247-10.579-3.34-.748-7.119-5.252-14.935-10.284-19.957-8.388-8.37-19.394-13.063-31.273-13.01-10.407.045-18.671 4.239-25.887 11.543-3.627-1.545-7.125-1.913-11.003-2.228 1.446-9.117 3.178-17.146 7.349-25.492 8.161-16.327 21.62-27.046 38.733-32.76z"/><path fill="#6f9c25" d="M45.472 209.466c22.065-1.189 18.721 17.008 28.723 24.32 1.638.088 2.49.053 4.007-.567 2.518-3.237.103-6.576.205-10.274.045-1.617.67-2.86 1.936-3.893 2.835-2.315 8.697-1.73 12.142-1.19 4.417.693 7.743 3.753 10.258 7.31 3.932 5.562 8.104 16.316 6.784 23.144-.821 4.245-7.262 7.374-10.594 9.464 4.628-1.342 8.914-2.187 13.686-.815 3.358.965 6.3 2.992 7.958 6.124 1.666 3.147 1.873 6.955 1.228 10.404-1.482 7.917-6.892 11.9-8.958 18.9-2.556 8.662-2.064 19.298-4.758 29.058-3.644-5.094-5.674-10.752-10.168-15.277-.495-.49-.98-.96-1.518-1.404-2.887-2.383-8.576-6.833-12.419-6.434l.353 1.919c-1.824 4.993-5.584 8.73-10.397 10.895-5.51 2.479-12.12 2.88-17.727.445-4.36-1.893-7.846-6.253-9.515-10.62-1.453-3.804-1.796-8.588.073-12.319 2.025-4.04 5.455-4.726 9.408-6.026-2.573.123-5.207.038-7.708.725-5.365 1.476-10.93 5.709-16.743 4.55-4.391-.875-8.466-3.698-10.975-7.375-3.508-5.14-4.25-12.19-2.975-18.18 1.121-5.267 4.17-10.112 8.742-13.04 5.582-3.574 11.226-2.968 17.347-1.607-5.527-3.04-9.537-6.755-11.48-12.99-1.644-5.278-1.455-11.754 1.317-16.63 2.53-4.449 6.9-7.326 11.768-8.617z"/><path fill="#23411f" d="M55.09 245.291c2.474.156 4.518 1.08 6.564 2.457 5.856 3.938 27.89 33.686 29.048 40.37l-.747.455c-6.709-5.516-35.864-32.702-36.902-39.395.288-1.669 1.04-2.586 2.037-3.887z"/><path fill="#6f9c25" d="M17.565 40.116c19.438 3.097 38.808 11.047 53.898 23.804 21.25 17.965 32.963 44.31 37.084 71.396 1.314 8.637 1.693 17.335 2.461 26.026-7.585-14.836-42.464-61.474-55.106-71.027-2.223-1.68-4.273-2.867-7.102-2.466-1.085.822-1.394.956-1.522 2.417-.289 3.307 4.208 7.701 6.13 10.03 19.312 26.108 37.68 52.986 52.698 81.838-23.867-3.433-48.122-18.105-63.57-36.457C17.817 116.31 14.41 76.843 17.565 40.117zM205.14 19.218l.587.375c4.787 12.37 2.95 43.627.094 56.42-7.344 32.899-29.563 64.338-58.017 82.447 4.45-18.96 9.71-37.202 16.98-55.301 5.78-14.389 13.171-27.881 16.985-42.999-5.894 5.093-10.304 11.612-14.746 17.943q-3.436 5.289-6.626 10.73-3.189 5.44-6.126 11.022-2.937 5.582-5.615 11.292-2.676 5.71-5.09 11.537-2.413 5.827-4.555 11.76-2.143 5.93-4.012 11.955-1.869 6.023-3.459 12.127-1.59 6.103-2.899 12.273c-7.051-25.547-3.058-64.934 7.37-88.738 13.733-31.351 37.836-50.523 69.13-62.843z"/></svg>